<?xml version="1.0" encoding="UTF-8"?>
<svg id="Layer_2" data-name="Layer 2" xmlns="http://www.w3.org/2000/svg" viewBox="0 0 17.31 14.19">
  <defs>
    <style>
      .cls-1 {
        fill: #526739;
      }
    </style>
  </defs>
  <g id="Layer_1-2" data-name="Layer 1">
    <path class="cls-1" d="m17.31,1.67c-.65.29-1.34.47-2.04.56.74-.45,1.3-1.15,1.56-1.97-.7.42-1.46.71-2.26.87-1.33-1.43-3.58-1.51-5.01-.18-.73.67-1.14,1.62-1.13,2.61,0,.27.03.54.09.8-2.86-.13-5.52-1.48-7.32-3.71-.93,1.62-.45,3.69,1.1,4.74-.56-.01-1.12-.16-1.61-.44h0c0,1.69,1.2,3.14,2.85,3.48-.31.08-.62.13-.94.13-.22.02-.44.02-.66,0,.47,1.44,1.8,2.43,3.31,2.46-1.26.99-2.81,1.53-4.41,1.53-.28.02-.56.02-.85,0,4.67,3.05,10.92,1.73,13.97-2.94,1.09-1.68,1.66-3.64,1.64-5.64v-.46c.67-.51,1.25-1.13,1.7-1.83Z"/>
  </g>
</svg>