<?xml version="1.0" encoding="UTF-8"?>
<svg id="Layer_2" data-name="Layer 2" xmlns="http://www.w3.org/2000/svg" viewBox="0 0 24 24">
  <defs>
    <style>
      .cls-1 {
        fill: #fff;
      }

      .cls-2 {
        fill: #526739;
      }
    </style>
  </defs>
  <g id="Layer_1-2" data-name="Layer 1">
    <g>
      <rect class="cls-2" width="24" height="24" rx="2.87" ry="2.87"/>
      <path class="cls-1" d="m16.68,16.31c-.07.04-.16.05-.24.06-.14.01-.29.03-.43.04-.24.02-.49.02-.73.03-.04,0-.09,0-.13,0,0,0,0,0-.01,0-.52.02-1.04.05-1.56.07s-1.04.04-1.56.07-1.04.04-1.56.07-1.04.04-1.56.07c-.04,0-.08,0-.12,0-.37.02-.61-.15-.66-.46-.04-.29.13-.55.42-.61.11-.02.23-.03.35-.03,1.94-.08,3.89-.17,5.83-.25.07,0,.13,0,.2,0,.04,0,.09,0,.13,0,0,0,0,0,0,0-.02-.01-.03-.03-.05-.04-.07-.06-.14-.13-.21-.19-5.15-4.73-2.18-2-7.33-6.74-.1-.09-.19-.19-.27-.29-.15-.2-.12-.49.05-.67.17-.17.44-.22.65-.09.11.07.22.15.31.24,5.15,4.73,2.17,1.99,7.32,6.72.07.07.15.13.26.24,0-.15,0-.24,0-.33-.08-1.99-.17-3.98-.25-5.98-.01-.27.04-.5.31-.63.31-.15.68.02.75.36.02.11.03.23.03.35.02.52.04,1.04.07,1.55s.04,1.04.07,1.56.04,1.04.07,1.56.04,1.04.07,1.56c.02.46.06.93.03,1.39,0,.13-.07.25-.18.33-.01,0-.03.02-.04.02Z"/>
    </g>
  </g>
</svg>