<?xml version="1.0" encoding="UTF-8"?>
<svg id="Layer_1" data-name="Layer 1" xmlns="http://www.w3.org/2000/svg" viewBox="0 0 50 50">
  <defs>
    <style>
      .cls-1 {
        fill: #526739;
      }
    </style>
  </defs>
  <path class="cls-1" d="m26.06,49.61h-1.25c-.99-.65-1.99-1.31-2.99-1.97-1.43,1.58-3.55,1.06-4.34-.67-1.63.32-2.81-.27-3.53-1.76-1.86.32-2.71-.06-3.67-1.62-2.45.63-4-1.39-3.41-3.41-.45-.21-.91-.42-1.39-.64-.27.51-.5,1.01-.77,1.47-.63,1.07-1.64,1.29-2.78,1.22-.84-.05-1.28-.55-1.58-1.26v-22.88c.61-1.27,1.32-1.53,2.64-1.01,2.48.99,4.96,1.99,7.45,2.98.18.07.37.14.57.21v-4.84c-.16.09-.29.16-.41.23-1.52.82-3.33-.01-3.64-1.71-.2-1.09.26-1.93,1.16-2.54,5.03-3.43,10.06-6.87,15.09-10.3,1.39-.95,2.2-.95,3.6,0,3.64,2.49,7.28,4.97,10.92,7.46,1.43.98,2.87,1.94,4.28,2.94,1.13.79,1.4,2.24.67,3.36-.73,1.12-2.15,1.44-3.35.75-.1-.06-.22-.11-.34-.17v4.61c.2-.07.37-.11.53-.18,2.49-.94,4.97-1.87,7.46-2.81,1.33-.5,1.97-.28,2.66.92v21.34c-.27.63-.66,1.17-1.4,1.23-1.27.11-2.37.06-3.22-1.6-.42-.82-.88-1.63-1.34-2.47-1.76.73-3.48,1.45-5.2,2.16.86,2.48-1.14,4.94-3.9,4.24-.02.02-.05.05-.06.07-.52,1.65-1.31,2.27-3.04,2.44-.13.01-.29.2-.34.34-.26.88-.79,1.51-1.67,1.78-.46.14-.96.12-1.51.18-.24.96-.98,1.54-1.94,1.91Zm-13.24-24.68c1.35.51,2.62,1.08,4.08.77.97-.21,1.96-.34,2.93-.51.08-.01.2-.02.22-.06.26-.57.83-.99.83-1.69,0-1.6,0-3.2,0-4.81,0-1.17.65-1.82,1.82-1.82,1.51,0,3.02,0,4.53,0,1.26,0,1.88.63,1.89,1.9,0,1.27,0,2.53.01,3.8,0,.19.1.45.25.56,1.21.92,2.44,1.82,3.67,2.72.53.38,1.14.6,1.77.44.94-.25,1.84-.61,2.79-.93-.3-.56-.58-1.05-.83-1.55-.47-.92-.34-1.85.32-2.64.13-.15.21-.39.21-.59.02-1.95,0-3.91.02-5.86,0-.29-.09-.46-.33-.62-3.9-2.65-7.79-5.31-11.67-7.98-.26-.18-.43-.16-.67.01-3.89,2.67-7.78,5.32-11.67,7.98-.24.17-.32.34-.32.63.01,2.03,0,4.07.02,6.1,0,.2.09.43.21.59.65.84.75,1.74.33,2.71-.12.26-.25.52-.41.87Zm9.8,21.07c.76.58,1.48,1.16,2.23,1.7.44.31,1,.2,1.34-.21.35-.41.33-.92-.05-1.35-.27-.3-.57-.56-.84-.86-.12-.14-.25-.31-.29-.48-.09-.36.03-.67.36-.87.36-.21.72-.17,1.02.12.55.53,1.08,1.1,1.64,1.62.4.37.94.34,1.3-.02.34-.35.34-.85,0-1.26-.09-.11-.2-.21-.3-.31-.96-.96-1.93-1.93-2.89-2.89-.28-.28-.44-.59-.27-.99.25-.59.92-.68,1.42-.19,1.05,1.03,2.08,2.09,3.14,3.11.24.23.57.43.9.5.62.14,1.2-.21,1.46-.77.26-.57.13-1.18-.4-1.65-1.22-1.08-2.46-2.15-3.69-3.24-.47-.42-.53-.87-.19-1.25.34-.37.83-.37,1.28.02.55.47,1.09.95,1.63,1.42,1.05.92,2.09,1.84,3.15,2.75.56.48,1.2.53,1.78.18.58-.34.87-.9.67-1.54-.11-.36-.36-.72-.65-.97-3.31-2.96-6.64-5.9-9.96-8.85-.13-.11-.26-.22-.4-.34-.15.16-.27.29-.39.42-.97,1.07-1.91,2.16-2.9,3.21-1.58,1.69-4.33,1.06-4.98-1.12-.22-.74-.12-1.45.19-2.15.42-.92.83-1.86,1.23-2.76-1.22.14-2.41.44-3.58.36-1.19-.08-2.35-.54-3.57-.85-1.9,3.78-3.84,7.64-5.8,11.53.46.21.9.42,1.34.63.77-2.35,3.18-2.81,4.72-1.25.85-.77,1.84-1.03,2.93-.67,1.12.37,1.72,1.21,1.96,2.32,1.84-.07,2.71.53,3.39,2.31.04,0,.09.02.13.02,2.06-.02,3.21,1.73,2.37,3.61-.14.32-.29.64-.45.99Zm15.8-19.23c-.77.28-1.51.54-2.24.83-1.55.6-2.97.39-4.31-.6-1.56-1.16-3.13-2.29-4.7-3.42-1.34-.97-2.97-.88-4.11.32-.65.69-1.24,1.48-1.68,2.32-.73,1.38-1.32,2.84-1.95,4.27-.11.24-.16.53-.14.79.04.48.29.84.77,1.01.55.2,1.05.09,1.45-.34.78-.85,1.55-1.71,2.32-2.57.31-.34.61-.69.91-1.03-.06-.07-.09-.11-.13-.14-.45-.45-.51-.89-.19-1.26.35-.39.8-.37,1.31.06.47.41.94.82,1.41,1.23,3.33,2.91,6.66,5.83,9.98,8.75.23.2.41.29.71.15.58-.27,1.19-.48,1.78-.72,1.09-.44,2.18-.89,3.3-1.35-1.5-2.77-2.98-5.5-4.49-8.29ZM2.02,18.45v22.1c.96.09,1.09.02,1.5-.79,2.7-5.37,5.4-10.75,8.11-16.12.41-.81.26-1.18-.58-1.52-1.45-.59-2.91-1.18-4.36-1.77-1.54-.62-3.08-1.25-4.67-1.89Zm45.96,20.45v-20.49c-.19.06-.34.11-.49.16-2.84,1.09-5.68,2.18-8.52,3.27-.88.34-.98.62-.54,1.44,2.67,4.94,5.36,9.87,8.01,14.82.35.65.79.93,1.53.79Zm-6.55-25.59c-.13-.14-.32-.44-.59-.62-5.02-3.45-10.05-6.88-15.08-10.31-.69-.47-.82-.47-1.5,0-5,3.42-10,6.83-15.01,10.25-.67.46-.85.91-.53,1.37.32.46.78.46,1.47-.02,4.67-3.19,9.34-6.38,14.01-9.57.75-.51.86-.51,1.63,0,4.67,3.19,9.34,6.38,14.02,9.56.16.11.32.22.49.29.53.21,1.11-.2,1.1-.96Zm-13.99,8.42v-3.25h-4.87v3.6c1.57-.98,3.17-1.11,4.87-.35Zm-14.54,21.94c.46-.01.87-.19,1.08-.6.53-1.06,1.04-2.12,1.5-3.21.25-.58-.1-1.26-.66-1.52-.57-.26-1.26-.09-1.55.48-.54,1.05-1.05,2.12-1.5,3.21-.33.8.29,1.65,1.13,1.64Zm6.03-1.7c-.01-.62-.38-1.09-.92-1.24-.5-.14-1.08.04-1.33.52-.43.8-.82,1.62-1.17,2.47-.25.62.1,1.29.74,1.57.53.23,1.21,0,1.51-.59.39-.77.73-1.56,1.08-2.35.06-.14.08-.31.09-.38Zm-9.51.15c.24-.18.58-.31.71-.55.39-.68.73-1.39,1.04-2.1.2-.47-.04-1-.48-1.22-.44-.22-.99-.1-1.22.34-.38.72-.74,1.45-1.04,2.21-.25.62.25,1.25.99,1.33Zm11.42.84c-.24.16-.57.27-.69.49-.4.74-.75,1.52-1.08,2.3-.17.42.1.9.54,1.1.33.15.79,0,.98-.38.38-.77.76-1.55,1.08-2.35.21-.52-.19-1.04-.83-1.16Z"/>
  <path class="cls-1" d="m21.72,11.87c0-1.8,1.48-3.27,3.28-3.27,1.82,0,3.29,1.49,3.28,3.32-.01,1.8-1.51,3.27-3.3,3.24-1.81-.02-3.26-1.49-3.25-3.3Zm1.64.02c0,.91.75,1.64,1.66,1.63.9-.01,1.61-.73,1.62-1.62,0-.91-.73-1.65-1.64-1.66-.91,0-1.65.74-1.64,1.65Z"/>
</svg>