<?xml version="1.0" encoding="UTF-8"?>
<svg id="Layer_2" data-name="Layer 2" xmlns="http://www.w3.org/2000/svg" viewBox="0 0 14.33 14.34">
  <defs>
    <style>
      .cls-1 {
        fill: #526739;
      }
    </style>
  </defs>
  <g id="Layer_1-2" data-name="Layer 1">
    <g>
      <path class="cls-1" d="m3.3.03C3.44.01,3.58,0,3.72,0c.34,0,.68.01,1.02.01.48,0,.97,0,1.45,0,.97,0,1.93,0,2.9,0,.48,0,.97,0,1.45,0,.44,0,.85.04,1.27.17.73.23,1.38.69,1.83,1.31.42.58.66,1.29.68,2.01,0,.04,0,.08,0,.11,0,2.37,0,4.75,0,7.12,0,.76-.21,1.46-.66,2.08-.75,1.02-1.76,1.52-3.02,1.52-2.3,0-4.61,0-6.91,0-.24,0-.49-.01-.72-.05-1.32-.24-2.25-.99-2.75-2.24C.12,11.73.08,11.38,0,11.04,0,8.47,0,5.89,0,3.32c.02-.1.03-.2.05-.3C.36,1.4,1.71.22,3.3.03ZM1.2,7.18s0,0,0,0c0,1.17,0,2.33,0,3.5,0,.37.05.74.22,1.07.46.93,1.21,1.4,2.25,1.4,2.33,0,4.66,0,6.99,0,.16,0,.32-.01.47-.03,1.08-.15,1.98-1.14,1.99-2.22.02-2.44,0-4.89,0-7.33,0-.33-.06-.65-.21-.95-.46-.93-1.21-1.4-2.25-1.4-2.34,0-4.67,0-7.01,0-.16,0-.32.01-.47.03-1.06.15-1.97,1.14-1.98,2.21-.02,1.24,0,2.48,0,3.72Z"/>
      <path class="cls-1" d="m7.15,3.6c1.97-.02,3.59,1.59,3.6,3.57.01,1.96-1.59,3.57-3.56,3.59-1.97.02-3.59-1.59-3.6-3.57-.01-1.96,1.58-3.57,3.56-3.59Zm0,5.97c1.31.01,2.38-1.04,2.4-2.37.01-1.31-1.04-2.38-2.37-2.4-1.32-.02-2.4,1.05-2.4,2.38,0,1.31,1.05,2.38,2.37,2.39Z"/>
      <path class="cls-1" d="m11.04,4.19c-.49,0-.89-.39-.89-.88,0-.5.4-.9.89-.9.49,0,.9.42.9.9,0,.49-.41.88-.9.88Z"/>
    </g>
  </g>
</svg>