<?xml version="1.0" encoding="UTF-8"?>
<svg id="Layer_2" data-name="Layer 2" xmlns="http://www.w3.org/2000/svg" viewBox="0 0 16.87 16.86">
  <defs>
    <style>
      .cls-1 {
        fill: #526739;
      }
    </style>
  </defs>
  <g id="Layer_1-2" data-name="Layer 1">
    <g>
      <path class="cls-1" d="m9.46,16.86h-3.48V5.62h3.33v1.51s.07-.03.08-.04c.73-1.18,1.83-1.71,3.19-1.75.78-.02,1.53.07,2.25.41.92.43,1.44,1.2,1.72,2.14.23.76.31,1.53.31,2.32.01,2.17,0,4.34.01,6.5,0,.03,0,.07,0,.11h-3.49c0-.08,0-.15,0-.23,0-1.84,0-3.68,0-5.52,0-.42-.04-.84-.11-1.25-.21-1.15-.96-1.54-2.03-1.42-.98.12-1.51.69-1.67,1.74-.06.39-.08.78-.08,1.17,0,1.76,0,3.51,0,5.27,0,.08,0,.16,0,.27Z"/>
      <path class="cls-1" d="m.29,5.62h3.48v11.23H.29V5.62Z"/>
      <path class="cls-1" d="m4.05,2.02c0,1.12-.9,2.04-2.01,2.05C.93,4.07,0,3.15,0,2.03,0,.92.91.01,2.01,0c1.11-.01,2.03.9,2.03,2.02Z"/>
    </g>
  </g>
</svg>