<?xml version="1.0" encoding="UTF-8"?>
<svg id="Layer_1" data-name="Layer 1" xmlns="http://www.w3.org/2000/svg" viewBox="0 0 50 50">
  <defs>
    <style>
      .cls-1 {
        fill: #526739;
      }
    </style>
  </defs>
  <path class="cls-1" d="m3.44,49.31c-.17-.07-.35-.14-.51-.22-1-.5-1.43-1.32-1.43-2.42,0-11.2,0-22.39,0-33.59,0-.69.19-.93.86-1.11,6.33-1.67,12.66-3.34,18.99-5,1.88-.49,3.28.61,3.29,2.55,0,.8,0,1.61,0,2.49.52,0,1,.03,1.48-.02.12-.01.27-.23.32-.38.89-2.48,1.77-4.97,2.65-7.46.31-.88.62-1.76.93-2.64.3-.84.6-.99,1.44-.69,5.4,1.9,10.79,3.81,16.19,5.71.85.3,1.01.63.72,1.47-2.51,7.11-5.02,14.22-7.53,21.33-1.37,3.89-2.75,7.78-4.12,11.67-.3.84-.62,1-1.48.7-1.91-.67-3.82-1.35-5.72-2.02-.12-.04-.24-.08-.44-.14,0,.21,0,.37,0,.54,0,2.03-.04,4.06.01,6.08.05,1.54-.45,2.65-1.99,3.15H3.44Zm-.32-35.67v.57c0,10.75,0,21.5,0,32.25,0,1.01.23,1.23,1.22,1.23,7.27,0,14.54,0,21.8,0,1.09,0,1.3-.21,1.3-1.31,0-10.48,0-20.96,0-31.44,0-1.11-.19-1.3-1.3-1.3-7.46,0-14.92,0-22.37,0h-.65Zm43.56-5.73c-5.11-1.8-10.19-3.59-15.25-5.38-.06.1-.09.13-.11.17-1.11,3.13-2.21,6.26-3.3,9.39-.05.14.04.39.16.5.47.44.82.94.84,1.59.04,1.36.04,2.72.06,4.08,0,.39,0,.78,0,1.22.87-.3,1.68-.57,2.47-.88.13-.05.25-.23.3-.38.27-.71.48-1.44.78-2.14.12-.28.35-.58.61-.73.58-.35,1.21-.62,1.83-.9.57-.26.96-.12,1.25.45.3.59.61,1.18.85,1.8.11.28.12.66.04.95-.19.7-.44,1.38-.71,2.06-.13.33-.08.58.11.87.73,1.13,1.44,2.27,2.12,3.43.15.25.29.62.22.88-.22.81-.51,1.59-.82,2.37-.21.52-.76.65-1.22.33-.21-.14-.39-.32-.58-.49-.61-.53-1.21-1.05-1.85-1.61-.19.52-.3,1.01-.52,1.44-.6,1.13-.58,2.19.14,3.27.17.25.14.71.05,1.03-.16.64-.42,1.26-.65,1.88-.3.83-.93.96-1.56.33-.56-.56-1.13-1.12-1.64-1.71-.33-.39-.68-.52-1.15-.32-.01.03-.04.06-.04.08,0,2.03-.02,4.05,0,6.08,0,.11.18.28.31.33.99.37,1.99.71,2.99,1.06.98.34,1.95.69,2.96,1.04,3.78-10.71,7.55-21.38,11.34-32.11Zm-23.67,4.08c0-.79,0-1.57,0-2.34,0-1.04-.39-1.35-1.38-1.09-4.08,1.07-8.15,2.15-12.23,3.23-.13.03-.25.09-.37.13v.06h13.99Zm12.12,4.29c-.73.16-1.11.6-1.35,1.32-1.12,3.29-2.3,6.55-3.44,9.83-.18.51-.42.91-.96,1.08-.26.08-.33.25-.31.5.02.23,0,.46,0,.72.19-.02.32,0,.44-.04.64-.17,1.12.03,1.55.52.38.44.84.81,1.26,1.21.23-.33.3-.69.04-1.1-.19-.31-.31-.66-.48-.98-.23-.42-.23-.81-.07-1.27,1.19-3.33,2.34-6.67,3.56-9.99.26-.71.18-1.26-.24-1.82Zm.52,5.87c-.08.2-.12.28-.15.37q-.48,1.32.57,2.24c.3.26.6.52.98.85.07-.4.24-.74.14-.93-.45-.84-.99-1.64-1.54-2.53Zm-4.61-1.63c-.65.22-1.2.4-1.74.61-.1.04-.21.18-.22.29-.03.27-.01.55-.01.81.43,0,.79.02,1.15-.01.11,0,.25-.12.29-.22.18-.45.33-.91.53-1.48Zm-1.19,3.34c-.31.02-.52.04-.76.06v1.88c.09-.06.13-.14.16-.22.19-.55.38-1.09.6-1.71Z"/>
  <path class="cls-1" d="m6.8,24.94c.09-4.54,3.75-8.13,8.2-8.04,4.52.09,8.1,3.75,8.02,8.22-.08,4.48-3.78,8.06-8.22,7.97-4.48-.1-8.09-3.76-8-8.15Zm6.27,1.88h3.69v-3.67h-3.69v3.67Zm-1.67-.21v-3.24c-.79.17-1.54.35-2.3.48-.46.08-.7.26-.64.76.04.36,0,.73.04,1.08.02.12.17.3.28.33.86.21,1.72.39,2.62.59Zm7.02,0c.66-.14,1.28-.26,1.89-.4,1.08-.24,1.18-.38,1.08-1.51-.02-.17-.02-.35-.07-.52-.02-.09-.11-.2-.19-.22-.9-.21-1.8-.4-2.71-.59v3.23Zm-1.9-5.13c-.13-.63-.25-1.23-.38-1.83-.27-1.18-.27-1.16-1.51-1.13-.52.01-.82.12-.86.71-.02.37-.17.74-.24,1.11-.08.37-.14.75-.21,1.14h3.2Zm0,7.03h-3.22c.11.56.21,1.08.33,1.6.32,1.45.34,1.46,1.85,1.33.08,0,.17,0,.23-.03.09-.05.2-.12.22-.2.2-.88.39-1.77.59-2.69Zm-7.46-.72c.73,1.37,1.69,2.34,3.05,3.04-.16-.84-.31-1.61-.47-2.38-.02-.08-.13-.19-.21-.2-.75-.15-1.51-.29-2.37-.45Zm11.68,0c-.84.16-1.6.29-2.36.45-.09.02-.2.15-.22.25-.16.75-.3,1.51-.46,2.34,1.36-.7,2.33-1.67,3.04-3.04Zm-3.04-8.65c.16.83.3,1.56.45,2.28.02.12.12.29.21.31.76.16,1.53.3,2.38.45-.71-1.36-1.69-2.32-3.04-3.04Zm-8.63,3.04c.87-.16,1.64-.3,2.4-.45.07-.01.16-.12.18-.19.16-.77.3-1.54.46-2.39-1.35.7-2.32,1.66-3.04,3.03Z"/>
  <path class="cls-1" d="m21.38,39.63v1.54h-12.93v-1.54h12.93Z"/>
  <path class="cls-1" d="m19.76,42.86v1.56h-9.69v-1.56h9.69Z"/>
  <path class="cls-1" d="m10.87,37.93v-1.56h1.58v1.56h-1.58Z"/>
  <path class="cls-1" d="m14.12,36.37h1.56v1.56h-1.56v-1.56Z"/>
  <path class="cls-1" d="m18.93,37.94h-1.57v-1.56h1.57v1.56Z"/>
  <path class="cls-1" d="m40.35,12.55c-.47-.17-.91-.32-1.39-.49.18-.52.35-1,.54-1.52.47.17.91.32,1.38.49-.18.52-.35,1-.53,1.52Z"/>
  <path class="cls-1" d="m31.16,7.59c.49.17.91.33,1.38.49-.18.51-.35,1-.53,1.52-.46-.16-.9-.32-1.38-.49.18-.51.35-1,.53-1.53Z"/>
  <path class="cls-1" d="m36.18,11.08c.19-.53.36-1.01.54-1.52.47.16.91.32,1.38.48-.18.51-.34.98-.53,1.52-.46-.16-.9-.31-1.39-.48Z"/>
  <path class="cls-1" d="m42.28,11.52c.48.17.92.32,1.38.49-.18.51-.35.99-.54,1.52-.46-.16-.9-.31-1.38-.48.18-.51.35-1,.53-1.52Z"/>
  <path class="cls-1" d="m33.94,8.58c.47.16.89.31,1.38.48-.18.51-.34.99-.53,1.53-.47-.17-.9-.32-1.39-.49.18-.52.35-1,.54-1.52Z"/>
</svg>