<?xml version="1.0" encoding="UTF-8"?>
<svg id="Layer_2" data-name="Layer 2" xmlns="http://www.w3.org/2000/svg" viewBox="0 0 26.77 26.78">
  <defs>
    <style>
      .cls-1 {
        fill: #536739;
      }
    </style>
  </defs>
  <g id="Layer_1-2" data-name="Layer 1">
    <path class="cls-1" d="m21.18,18.94c1.68,1.68,3.35,3.35,5.01,5.01.45.45.69.96.53,1.61-.29,1.16-1.64,1.61-2.56.84-.23-.19-.43-.41-.64-.62-1.52-1.52-3.05-3.05-4.59-4.59-3.21,2.3-6.72,3-10.53,1.9-2.76-.8-4.93-2.45-6.49-4.86C-1.26,13.35-.4,6.88,3.9,3.03c4.38-3.92,10.87-4.05,15.4-.33,4.66,3.83,5.86,10.97,1.88,16.24Zm-9.38,1.46c4.77,0,8.59-3.83,8.6-8.6,0-4.78-3.84-8.62-8.62-8.62-4.77,0-8.59,3.83-8.6,8.6,0,4.78,3.84,8.62,8.62,8.62Z"/>
  </g>
</svg>