<?xml version="1.0" encoding="UTF-8"?>
<svg id="Layer_1" data-name="Layer 1" xmlns="http://www.w3.org/2000/svg" viewBox="0 0 50 50">
  <defs>
    <style>
      .cls-1 {
        fill: #526739;
      }
    </style>
  </defs>
  <path class="cls-1" d="m38.18,16.48c.22,0,.4,0,.57,0,2.08,0,4.17,0,6.25,0,2.36,0,4.03,1.66,4.03,4.02,0,6.61,0,13.22,0,19.83,0,2.35-1.67,4.01-4.04,4.02-2.08,0-4.17,0-6.25,0-.17,0-.35,0-.54,0-.02.46,0,.88-.07,1.29-.31,2.01-1.88,3.35-3.93,3.36-3.42,0-6.85,0-10.27,0-6.27,0-12.54,0-18.8,0-2.55,0-4.18-1.62-4.18-4.17,0-13.22,0-26.44,0-39.67,0-2.54,1.63-4.16,4.18-4.16,9.63,0,19.26,0,28.88,0,2.53,0,4.16,1.62,4.16,4.14,0,3.58,0,7.16,0,10.74v.61Zm-1.55,0v-.53c0-3.61,0-7.22,0-10.84,0-1.64-.94-2.57-2.59-2.57-9.64,0-19.29,0-28.93,0-1.68,0-2.61.93-2.61,2.6,0,13.24,0,26.48,0,39.72,0,1.64.94,2.58,2.58,2.58,9.66,0,19.32,0,28.98,0,1.79,0,2.85-1.29,2.5-3.1-.17,0-.34,0-.52,0-2.05,0-4.1,0-6.15,0-2.48,0-4.12-1.64-4.12-4.13,0-6.53,0-13.06,0-19.59,0-2.52,1.63-4.15,4.15-4.15,2.21,0,4.42,0,6.71,0Zm-9.31,13.93c0,3.31,0,6.61,0,9.92,0,1.51.97,2.47,2.49,2.47,5.06,0,10.11,0,15.17,0,1.54,0,2.5-.96,2.5-2.51,0-6.58,0-13.16,0-19.74,0-1.57-.96-2.52-2.54-2.52-5.02,0-10.05,0-15.07,0-1.61,0-2.55.95-2.55,2.56,0,3.27,0,6.55,0,9.82Z"/>
  <path class="cls-1" d="m13.37,24.23c2.01,0,3.94,0,5.88,0,.88,0,1.12.25,1.1,1.12-.12,3.82-3.17,6.99-7.1,7.37-3.77.37-7.37-2.26-8.21-5.99-1.07-4.76,2.47-9.36,7.27-9.47.79-.02,1.06.24,1.06,1.02,0,1.79,0,3.58,0,5.37,0,.17,0,.35,0,.58Zm5.33,1.55c-.18,0-.35,0-.53,0-1.79,0-3.59,0-5.38,0-.7,0-.97-.27-.97-.96,0-1.44,0-2.87,0-4.31,0-.53,0-1.06,0-1.59-2.66-.06-5.37,2.9-5.43,5.87-.07,3.5,2.65,6.37,6.07,6.41,3.87.04,6.12-3.1,6.24-5.42Z"/>
  <path class="cls-1" d="m18.4,23.45c-1.1,0-2.2,0-3.29,0-.7,0-.97-.27-.97-.96,0-2.19,0-4.38,0-6.57,0-.72.28-.98,1.01-.97,4.02.05,7.5,3.54,7.52,7.55,0,.68-.28.96-.97.96-1.1,0-2.2,0-3.29,0Zm-2.7-1.57h5.31c0-2.46-3.07-5.5-5.31-5.26v5.26Z"/>
  <path class="cls-1" d="m24.2,5.65v1.54h-3.04v.79c.29,0,.59-.02.89,0,1.27.08,2.24,1.18,2.17,2.45-.07,1.24-1.14,2.22-2.39,2.18-1.23-.03-2.23-1.04-2.23-2.29h1.48c.03.08.07.18.11.27.19.39.5.56.91.44.38-.11.59-.39.57-.8-.02-.4-.33-.69-.78-.71-.48-.02-.97,0-1.45,0-.55-.01-.85-.29-.86-.83-.01-.74-.01-1.48,0-2.22,0-.47.28-.76.73-.81.1-.01.19,0,.29,0,1.19,0,2.38,0,3.61,0Z"/>
  <path class="cls-1" d="m16.6,11.06h2.15v1.55c-.76,0-1.53,0-2.3,0-.47,0-.94,0-1.4,0-.37,0-.67-.1-.84-.45-.17-.36-.04-.65.19-.93.82-1.02,1.63-2.04,2.45-3.05.21-.26.52-.5.08-.83-.36-.26-.86-.19-1.1.19-.08.12-.12.26-.18.4h-1.48c-.03-1.27,1.03-2.3,2.31-2.3,1.25,0,2.34,1.06,2.3,2.26,0,.25-.16.52-.31.73-.58.77-1.2,1.52-1.8,2.27-.02.02-.02.06-.06.15Z"/>
  <path class="cls-1" d="m14.11,44.33h-1.49v-9.25h1.49v9.25Z"/>
  <path class="cls-1" d="m9.51,44.32v-7.68h1.5v7.68h-1.5Z"/>
  <path class="cls-1" d="m20.31,44.33h-1.49v-7.68h1.49v7.68Z"/>
  <path class="cls-1" d="m28.79,12.19c-.48-.24-.91-.45-1.38-.69,1.03-2.06,2.05-4.09,3.09-6.18.46.23.9.44,1.39.68-1.03,2.06-2.05,4.09-3.1,6.19Z"/>
  <path class="cls-1" d="m17.21,44.33h-1.5v-6.13h1.5v6.13Z"/>
  <path class="cls-1" d="m7.91,38.96v5.35h-1.5v-5.35h1.5Z"/>
  <path class="cls-1" d="m28.08,6.44v1.49h-1.5v-1.49h1.5Z"/>
  <path class="cls-1" d="m32.73,11.04h-1.49v-1.49h1.49v1.49Z"/>
  <path class="cls-1" d="m37.36,27.32c-2.47,0-4.94,0-7.42,0-.83,0-1.07-.24-1.07-1.06,0-1.89,0-3.77,0-5.66,0-.76.26-1.02,1.01-1.02,5.01,0,10.02,0,15.03,0,.76,0,1.02.26,1.02,1.01,0,1.9,0,3.81,0,5.71,0,.76-.26,1.02-1.01,1.02-2.52,0-5.04,0-7.56,0Zm7-6.16h-13.9v4.59h13.9v-4.59Z"/>
  <path class="cls-1" d="m36.65,36.6h-6.97v-1.52h6.95v-4.64h1.54v4.61h6.97v1.54h-6.95v4.64h-1.54v-4.63Z"/>
  <path class="cls-1" d="m42.43,30.62c.52-.6.93-1.07,1.36-1.56.4.43.73.77,1.13,1.19-.45.39-.93.8-1.48,1.27.58.53,1.04.95,1.53,1.39-.43.4-.79.73-1.22,1.13-.39-.44-.8-.9-1.25-1.41-.49.52-.92.98-1.37,1.45-.4-.43-.73-.79-1.12-1.22.42-.37.89-.78,1.47-1.29-.58-.48-1.08-.89-1.58-1.3.46-.45.8-.79,1.16-1.15.43.46.85.92,1.38,1.49Z"/>
  <path class="cls-1" d="m32.75,29.67v1.52h1.53v1.54h-1.52v1.54h-1.54v-1.52h-1.55v-1.54h1.52v-1.54h1.56Z"/>
  <path class="cls-1" d="m45.12,38.92h-4.58v-1.51h4.58v1.51Z"/>
  <path class="cls-1" d="m29.69,38.18h4.59v1.49h-4.59v-1.49Z"/>
  <path class="cls-1" d="m45.14,39.74v1.49h-4.59v-1.49h4.59Z"/>
</svg>