<?xml version="1.0" encoding="UTF-8"?>
<svg id="Layer_1" data-name="Layer 1" xmlns="http://www.w3.org/2000/svg" viewBox="0 0 50 50">
  <defs>
    <style>
      .cls-1 {
        fill: #526739;
      }
    </style>
  </defs>
  <path class="cls-1" d="m47.58,43.25h1.7v6.25h-12.49v-6.22h1.49c.16-.75.11-1.34-.63-1.73-.4-.21-.75-.52-1.09-.82-.87-.76-1.32-1.73-1.35-2.88-.02-.89,0-1.78,0-2.79-2.44,3.75-5.78,5.82-10.18,5.83-4.41,0-7.75-2.06-10.21-5.83,0,.73-.04,1.35,0,1.97.13,1.86-.56,3.3-2.14,4.31-.08.05-.16.12-.24.18q-.84.62-.72,1.75c.25,0,.5,0,.76,0,.24,0,.48,0,.75,0v6.23H.72v-6.21h1.72c-.2-.34-.35-.62-.52-.88-.87-1.34-1.24-2.8-1.23-4.4.02-5.15.02-10.31,0-15.46-.01-2.58.88-4.77,2.72-6.58,1.03-1,2.03-2.03,3.05-3.04,1.26-1.25,3.16-1.29,4.35-.11,1.19,1.19,1.15,3.07-.1,4.34-.11.11-.22.23-.35.38.13.07.23.12.33.16,2.01.93,2.39,3.43.73,4.89-1.36,1.2-2.74,2.37-4.13,3.53-.23.2-.35.39-.33.7.03.49.03.98,0,1.47-.06.93.26,1.69.95,2.3.18.16.32.37.48.55.05-.02.09-.03.14-.05,0-.62,0-1.25,0-1.87,0-.84.28-1.57.85-2.18.96-1.04,2.47-1.29,3.72-.64.13.07.26.14.35.19,1.7-5.48,5.26-8.91,11.09-9.09,6.27-.2,10.13,3.25,12.01,9.1.91-.59,1.92-.76,2.96-.31,1.22.52,1.88,1.48,1.95,2.81.03.66,0,1.32,0,2.04,1.02-.79,1.57-1.66,1.62-2.96.05-1.3-.3-2.19-1.38-2.94-1-.7-1.83-1.63-2.82-2.35-1.91-1.39-1.85-4.3.76-5.35-.16-.16-.3-.31-.44-.46-1.18-1.24-1.18-3.11,0-4.27,1.17-1.16,3.05-1.14,4.27.05,1.14,1.12,2.28,2.24,3.39,3.39,1.59,1.64,2.42,3.62,2.43,5.91.02,5.41,0,10.83,0,16.24,0,1.32-.36,2.54-1.03,3.67-.22.37-.44.75-.7,1.18Zm-22.57-24.26c-5.62,0-10.2,4.56-10.2,10.17,0,5.61,4.57,10.18,10.19,10.18,5.62,0,10.2-4.57,10.2-10.17,0-5.61-4.57-10.18-10.19-10.18Zm14.93,15.64c-.02-.09-.03-.12-.03-.15,0-1.73,0-3.46,0-5.19,0-.99-.67-1.7-1.58-1.69-.91,0-1.56.71-1.56,1.71,0,2.77,0,5.55,0,8.32,0,.88.34,1.58,1.04,2.1.44.33.86.71,1.34.98.63.36.87.85.77,1.56-.05.31,0,.64,0,.98,1.32,0,2.58,0,3.84,0,.67,0,1.45.19,1.97-.1.5-.27.7-1.06,1.06-1.61.7-1.09,1-2.27.99-3.57-.02-5.22,0-10.44,0-15.66,0-1.99-.69-3.69-2.1-5.11-1.06-1.06-2.12-2.13-3.19-3.18-.66-.66-1.55-.71-2.14-.14-.6.58-.56,1.49.12,2.17.96.96,1.91,1.92,2.88,2.87.88.86,1.3,1.88,1.29,3.11-.02,1.7-.11,3.4.02,5.09.18,2.22-.49,4-2.25,5.37-.67.52-1.09,1.14-.92,2.03,0,.02-.03.05-.06.09h-1.47Zm-29.84,8.63c0-.56.02-1.05,0-1.54-.02-.32.1-.51.35-.68.6-.42,1.18-.87,1.77-1.31.69-.52,1.03-1.2,1.03-2.06,0-2.79,0-5.58,0-8.37,0-.99-.67-1.7-1.58-1.69-.91,0-1.55.71-1.56,1.71,0,1.6,0,3.2,0,4.8,0,.17,0,.34,0,.51h-1.57c0-.2-.02-.38,0-.55.07-.48-.11-.83-.47-1.15-.5-.44-.95-.94-1.43-1.41-.85-.83-1.25-1.84-1.25-3.03.01-2.15.01-4.31,0-6.46,0-1.21.41-2.22,1.27-3.07.97-.95,1.92-1.91,2.88-2.87.69-.69.75-1.58.16-2.17-.59-.6-1.49-.54-2.17.13-1.01,1-2,2.02-3.02,3.01-1.54,1.49-2.27,3.29-2.26,5.43.02,4.99.04,9.98-.01,14.97-.02,1.68.41,3.14,1.26,4.58.54.93,1.1,1.33,2.2,1.24,1.44-.12,2.9-.03,4.4-.03Zm1.55,1.6H2.3v3.07h9.35v-3.07Zm26.71,3.06h9.35v-3.07h-9.35v3.07ZM6.97,24.34c1.19-1.01,2.29-1.95,3.38-2.9.67-.58.71-1.44.14-2.03-.56-.57-1.48-.56-2.07.02-.28.28-.62.52-.81.84-.27.45-.55.94-.61,1.45-.1.82-.03,1.66-.03,2.61Zm36.05-.02c0-1,.06-1.92-.03-2.81-.04-.43-.34-.87-.6-1.25-.22-.32-.56-.54-.81-.85-.29-.35-.63-.46-1.07-.42-.61.05-1.06.31-1.29.89-.22.54-.1,1.09.38,1.51,1.1.97,2.23,1.91,3.42,2.94Z"/>
  <path class="cls-1" d="m19.5,15.07h-1.52v-7.02h2.29c-1.32-1.7-2.58-3.31-3.89-5-1.3,1.67-2.56,3.28-3.87,4.96h2.26v3.91h-1.51v-2.3h-4c2.4-3.08,4.72-6.07,7.11-9.13,2.36,3.03,4.69,6.02,7.09,9.09h-3.96v5.48Z"/>
  <path class="cls-1" d="m30.45,15.85h-1.51v-3.88h-3.99c2.4-3.08,4.72-6.06,7.1-9.12,2.36,3.03,4.69,6.01,7.08,9.08h-3.92v2.33h-1.55v-3.88h2.29c-1.32-1.7-2.58-3.31-3.89-4.99-1.3,1.67-2.56,3.28-3.87,4.97h2.26v5.49Z"/>
  <path class="cls-1" d="m14.78,15.06h-1.51v-1.51h1.51v1.51Z"/>
  <path class="cls-1" d="m33.66,15.89h1.51v1.5h-1.51v-1.5Z"/>
  <path class="cls-1" d="m28.89,26.8h-1.5c-.29-1.17-.76-1.54-1.96-1.54-.42,0-.85-.01-1.27,0-.85.04-1.51.72-1.51,1.56,0,.83.65,1.53,1.5,1.56.51.02,1.01,0,1.52,0,1.77.01,3.15,1.26,3.25,2.94.09,1.7-1.1,3.08-2.86,3.31-.08.01-.15.02-.26.03v1.51h-1.57v-1.48c-2.01-.35-3.17-1.53-3.11-3.15h1.5c.29,1.17.76,1.54,1.96,1.54.41,0,.82,0,1.22,0,.88-.03,1.56-.71,1.56-1.56,0-.85-.67-1.54-1.55-1.56-.49-.01-.98,0-1.47,0-1.77-.01-3.16-1.27-3.24-2.94-.09-1.72,1.13-3.11,2.91-3.32.05,0,.1-.01.2-.02v-1.51h1.59v1.49c2.01.34,3.16,1.52,3.11,3.15Z"/>
  <path class="cls-1" d="m16.4,29.93v-1.51h1.52v1.51h-1.52Z"/>
  <path class="cls-1" d="m32.07,29.93v-1.49h1.52v1.49h-1.52Z"/>
</svg>